# xmcd
#
# Track frame offsets:
# 150
# 21710
# 48999
# 72022
# 87390
# 105549
# 127711
# 150609
# 170672
# 188622
# 191650
#
# Disc length: 2828 seconds
#
#
# Revision: 0
# Processed by: cddbd v1.5.1PL0 Copyright (c) Steve Scherf et al.
# Submitted via: FreeRIP 2.53 
#
DISCID=8c0b0a0b
DTITLE=Michael Packer - The Michael Packer Blues Band
DYEAR=2004
DGENRE=Blues
TTITLE0=I'm In Love
TTITLE1=Gotta Go (Chicago, New Orleans)
TTITLE2=Christmas On The Bowery
TTITLE3=The Deuce
TTITLE4=I Got a Mind to Give up Living
TTITLE5=Born in New York City
TTITLE6=Going Away
TTITLE7=All Along the Watchtower
TTITLE8=Don't Need You No More
TTITLE9=#6 Train
TTITLE10=Bleecker Street
EXTD=BluesfestRadio.com
EXTT0=
EXTT1=
EXTT2=
EXTT3=
EXTT4=
EXTT5=
EXTT6=
EXTT7=
EXTT8=
EXTT9=
EXTT10=
PLAYORDER=
